# Blender v2.69 (sub 0) OBJ File: '2_line.blend'
# www.blender.org
mtllib 2_line.mtl
o BezierCircle
v -6.450457 -3.277054 -0.000000
v -6.449919 -3.277054 -0.007984
v -6.448354 -3.277054 -0.015641
v -6.445831 -3.277054 -0.022902
v -6.442420 -3.277054 -0.029697
v -6.438192 -3.277054 -0.035955
v -6.433218 -3.277054 -0.041607
v -6.427566 -3.277054 -0.046582
v -6.421307 -3.277054 -0.050810
v -6.414512 -3.277054 -0.054221
v -6.407251 -3.277054 -0.056744
v -6.399594 -3.277054 -0.058309
v -6.391611 -3.277054 -0.058846
v -6.383627 -3.277054 -0.058309
v -6.375970 -3.277054 -0.056744
v -6.368709 -3.277054 -0.054221
v -6.361914 -3.277054 -0.050810
v -6.355656 -3.277054 -0.046582
v -6.350004 -3.277054 -0.041607
v -6.345029 -3.277054 -0.035955
v -6.340801 -3.277054 -0.029697
v -6.337390 -3.277054 -0.022902
v -6.334867 -3.277054 -0.015641
v -6.333302 -3.277054 -0.007984
v -6.332765 -3.277054 -0.000000
v -6.333302 -3.277054 0.007983
v -6.334867 -3.277054 0.015640
v -6.337390 -3.277054 0.022901
v -6.340801 -3.277054 0.029696
v -6.345029 -3.277054 0.035955
v -6.350004 -3.277054 0.041606
v -6.355656 -3.277054 0.046581
v -6.361914 -3.277054 0.050809
v -6.368709 -3.277054 0.054220
v -6.375970 -3.277054 0.056743
v -6.383627 -3.277054 0.058308
v -6.391611 -3.277054 0.058845
v -6.399594 -3.277054 0.058308
v -6.407251 -3.277054 0.056743
v -6.414512 -3.277054 0.054220
v -6.421307 -3.277054 0.050809
v -6.427566 -3.277054 0.046581
v -6.433218 -3.277054 0.041606
v -6.438192 -3.277054 0.035955
v -6.442420 -3.277054 0.029696
v -6.445831 -3.277054 0.022901
v -6.448354 -3.277054 0.015640
v -6.449919 -3.277054 0.007983
l 1 2
l 2 3
l 3 4
l 4 5
l 5 6
l 6 7
l 7 8
l 8 9
l 9 10
l 10 11
l 11 12
l 12 13
l 13 14
l 14 15
l 15 16
l 16 17
l 17 18
l 18 19
l 19 20
l 20 21
l 21 22
l 22 23
l 23 24
l 24 25
l 25 26
l 26 27
l 27 28
l 28 29
l 29 30
l 30 31
l 31 32
l 32 33
l 33 34
l 34 35
l 35 36
l 36 37
l 37 38
l 38 39
l 39 40
l 40 41
l 41 42
l 42 43
l 43 44
l 44 45
l 45 46
l 46 47
l 47 48
l 48 1
o BezierCurve_Mesh
v -2.323920 0.141689 -0.010819
v -2.223098 0.060822 0.090246
v -2.236844 -0.099528 0.076626
v -2.374825 -0.127080 -0.062228
v -2.417369 0.036410 -0.103923
v -2.099197 -0.009255 -0.363382
v -1.815294 -0.085166 -0.238685
v -1.612064 -0.139219 -0.499809
v -1.924320 0.140404 -0.371041
v -1.819923 0.074456 -0.235240
v -1.627766 0.003535 -0.596690
v -1.211035 0.136519 -0.574462
v -1.296387 0.089347 -0.400428
v -1.414531 -0.089427 -0.371482
v -1.027215 -0.020262 -0.665971
v -0.830343 0.072380 -0.388444
v -0.953721 -0.141359 -0.515377
v -0.604530 0.104991 -0.562163
v -0.836668 -0.063131 -0.386315
v -0.578122 -0.061074 -0.601490
v 1.187662 0.099199 -0.185217
v 1.485396 0.132148 0.019709
v 0.930014 0.060239 0.005676
v 1.351314 -0.048960 0.085250
v 0.990131 -0.062642 -0.246303
v 1.007176 -0.144427 -0.106993
v 2.312911 0.000000 -0.130607
v 2.313384 0.154604 -0.006823
v 2.313430 0.036145 0.135624
v 2.313425 -0.133228 0.073111
v 2.313208 -0.112564 -0.068272
vn -0.182501 0.918119 -0.351695
vn -0.532273 -0.109317 -0.839442
vn -0.630793 0.264362 -0.729529
vn -0.090910 0.993456 -0.069139
vn 0.440046 -0.513352 0.736747
vn 0.375530 0.588092 0.716300
vn 0.532318 0.465829 0.706853
vn 0.405116 -0.715729 0.568870
vn -0.138493 -0.909024 -0.392987
vn -0.360725 -0.839061 -0.407251
vn -0.278542 0.059786 -0.958525
vn -0.027467 0.906278 -0.421735
vn 0.263253 0.043092 0.963744
vn 0.091525 0.667837 0.738639
vn 0.014985 -0.994659 -0.102084
vn -0.094394 -0.465957 0.879727
vn -0.113712 0.524430 0.843806
vn 0.011292 -0.161504 -0.986785
vn 0.128971 0.702200 -0.700156
vn 0.165990 -0.406751 -0.898312
vn 0.084506 0.722983 -0.685629
vn -0.181738 0.417188 0.890439
vn -0.062014 0.863582 0.500320
vn -0.034120 -0.996307 0.078402
vn -0.101199 -0.296945 0.949492
vn 0.160772 -0.439680 -0.883633
vn 0.000598 -0.851880 0.523736
vn 0.068048 -0.833676 -0.548046
vn 0.112922 0.086252 -0.989853
vn 0.055732 0.996013 -0.069657
vn -0.017972 0.253325 0.967214
usemtl None
s 1
f 57//1 54//2 53//3
f 49//4 57//1 53//3
f 55//5 58//6 50//7
f 51//8 56//9 55//5
f 53//3 54//2 52//10
f 54//2 59//11 56//9
f 57//1 60//12 59//11
f 55//5 62//13 61//14
f 65//15 62//13 55//5
f 67//16 64//17 62//13
f 65//15 67//16 62//13
f 63//18 65//15 56//9
f 60//12 66//19 63//18
f 63//18 66//19 68//20
f 61//14 64//17 60//12
f 60//12 69//21 66//19
f 64//17 71//22 70//23
f 74//24 72//25 65//15
f 73//26 74//24 68//20
f 60//12 70//23 69//21
f 72//25 71//22 67//16
f 78//27 72//25 74//24
f 79//28 78//27 74//24
f 75//29 79//28 73//26
f 69//21 76//30 75//29
f 70//23 77//31 76//30
f 78//27 77//31 72//25
f 50//7 58//6 49//4
f 50//7 51//8 55//5
f 51//8 52//10 56//9
f 57//1 59//11 54//2
f 58//6 57//1 49//4
f 52//10 54//2 56//9
f 57//1 58//6 61//14
f 58//6 55//5 61//14
f 56//9 65//15 55//5
f 59//11 60//12 63//18
f 61//14 62//13 64//17
f 59//11 63//18 56//9
f 57//1 61//14 60//12
f 63//18 68//20 65//15
f 68//20 66//19 69//21
f 68//20 74//24 65//15
f 68//20 69//21 73//26
f 60//12 64//17 70//23
f 64//17 67//16 71//22
f 65//15 72//25 67//16
f 73//26 69//21 75//29
f 71//22 72//25 70//23
f 73//26 79//28 74//24
f 69//21 70//23 76//30
f 70//23 72//25 77//31
o Sphere
v 2.188158 0.660866 -0.258649
v 2.173987 -0.659618 -0.296273
v 2.643039 0.922092 -0.349089
v 1.895816 0.002843 -0.224481
v 2.146644 -0.024705 -0.680693
v 2.368482 0.559258 -0.655695
v 2.762408 -0.877447 -0.523704
v 2.557732 -0.301606 -0.916839
v 2.884463 0.490622 -0.920640
v 3.057123 -0.324845 -0.980776
v 3.463839 0.511821 -0.718338
v 3.740160 -0.202913 -0.616571
v 3.891913 0.195262 -0.340074
v 3.435174 -0.661907 -0.579689
v 3.139405 -1.003650 -0.128040
v 3.556317 0.828742 0.037283
v 3.826848 -0.513820 -0.045526
v 3.597946 -0.768454 0.193167
v 3.169576 0.950774 -0.300153
v 3.461978 0.638309 0.617301
v 3.859158 0.297754 0.309710
v 3.566041 0.115095 0.794084
v 3.657051 -0.491432 0.554020
v 3.045640 -0.941507 0.363511
v 2.718433 0.765244 0.660955
v 3.129305 -0.495844 0.900893
v 2.849918 0.278701 1.002142
v 2.643744 -0.647573 0.776532
v 2.317570 0.076526 0.832438
v 2.156144 -0.533491 0.419894
v 2.336974 0.795330 0.361946
v 2.581925 -0.946963 0.173311
v 2.900490 1.018997 0.099943
v 1.948477 0.113791 0.329227
vn -0.506609 0.859738 -0.064797
vn -0.842083 -0.305418 -0.444539
vn -0.176206 -0.973946 -0.142761
vn -0.471855 -0.605348 -0.641020
vn -0.426416 0.199753 -0.882195
vn -0.406414 0.163300 -0.898978
vn -0.129487 -0.590076 -0.796896
vn 0.012084 0.800504 -0.599205
vn 0.322052 0.137267 -0.936718
vn 0.724094 0.185350 -0.664329
vn 0.733939 0.589641 -0.337130
vn 0.583912 -0.783968 -0.210810
vn 0.995962 -0.066197 0.060647
vn 0.746352 0.586796 0.314052
vn 0.825272 -0.505101 0.252585
vn 0.280745 0.959451 0.025214
vn 0.864645 -0.067311 0.497853
vn 0.291822 0.893669 0.340876
vn 0.344719 -0.920859 0.182173
vn 0.372540 -0.742001 0.557359
vn 0.273167 -0.027165 0.961583
vn 0.335274 0.360746 0.870318
vn -0.201175 0.915370 0.348749
vn -0.518154 0.478156 0.709143
vn -0.799903 -0.176278 0.573656
vn -0.947663 -0.283457 0.146925
vn -0.657019 -0.745074 0.114848
vn -0.036893 -0.992279 0.118408
vn -0.919252 -0.390978 0.045954
vn -0.866347 0.488956 0.101804
vn -0.913750 0.406240 0.005503
vn -0.365428 0.930800 0.008644
vn -0.405673 -0.893166 -0.194122
vn -0.820216 0.340531 -0.459657
vn -0.818318 0.330981 -0.469901
vn -0.647010 -0.415109 -0.639580
vn -0.512943 0.746415 -0.423975
vn -0.235761 0.725130 -0.646995
vn -0.124719 0.046681 -0.991093
vn 0.157432 -0.677913 -0.718087
vn -0.035657 0.980895 -0.191240
vn 0.486727 -0.386367 -0.783465
vn 0.462498 0.052787 -0.885048
vn 0.196567 0.742182 -0.640724
vn 0.229386 -0.842561 -0.487312
vn 0.747608 -0.529023 -0.401518
vn 0.561687 0.736198 -0.377518
vn 0.580461 -0.770028 -0.264804
vn 0.950011 -0.190065 -0.247698
vn 0.875189 0.482720 -0.032023
vn 0.948522 -0.157926 0.274527
vn 0.740996 0.342531 0.577580
vn 0.534539 -0.240474 0.810210
vn 0.397066 -0.758269 0.517075
vn 0.147873 0.594313 0.790522
vn 0.175818 0.874263 0.452495
vn -0.186364 -0.193149 0.963308
vn -0.175123 -0.874635 0.452045
vn 0.080610 -0.773363 0.628817
vn -0.236035 -0.180049 0.954919
vn -0.420462 0.442014 0.792361
vn -0.606428 -0.329055 0.723857
vn -0.729045 0.388524 0.563509
vn -0.490251 -0.759664 0.427276
usemtl None
s off
f 110//32 82//32 80//32
f 83//33 84//33 81//33
f 111//34 86//34 94//34
f 81//35 87//35 86//35
f 84//36 85//36 88//36
f 84//37 88//37 87//37
f 87//38 89//38 86//38
f 82//39 98//39 88//39
f 88//40 90//40 89//40
f 91//41 90//41 92//41
f 90//42 95//42 92//42
f 94//43 93//43 96//43
f 92//44 100//44 96//44
f 100//45 95//45 99//45
f 96//46 102//46 97//46
f 98//47 112//47 95//47
f 100//48 101//48 102//48
f 95//49 112//49 99//49
f 94//50 97//50 103//50
f 103//51 102//51 105//51
f 105//52 101//52 106//52
f 101//53 99//53 106//53
f 112//54 110//54 104//54
f 104//55 110//55 108//55
f 108//56 113//56 109//56
f 113//57 83//57 109//57
f 111//58 109//58 81//58
f 94//59 103//59 111//59
f 109//60 83//60 81//60
f 113//61 110//61 80//61
f 113//62 80//62 83//62
f 82//63 110//63 112//63
f 86//64 111//64 81//64
f 83//65 80//65 85//65
f 84//66 83//66 85//66
f 81//67 84//67 87//67
f 80//68 82//68 85//68
f 85//69 82//69 88//69
f 87//70 88//70 89//70
f 86//71 89//71 93//71
f 82//72 112//72 98//72
f 93//73 89//73 91//73
f 89//74 90//74 91//74
f 88//75 98//75 90//75
f 94//76 86//76 93//76
f 96//77 93//77 91//77
f 90//78 98//78 95//78
f 94//79 96//79 97//79
f 91//80 92//80 96//80
f 92//81 95//81 100//81
f 96//82 100//82 102//82
f 101//83 100//83 99//83
f 102//84 101//84 105//84
f 103//85 97//85 102//85
f 106//86 99//86 104//86
f 99//87 112//87 104//87
f 107//88 105//88 106//88
f 111//89 103//89 107//89
f 103//90 105//90 107//90
f 108//91 107//91 106//91
f 106//92 104//92 108//92
f 107//93 108//93 109//93
f 113//94 108//94 110//94
f 111//95 107//95 109//95
o Sphere.001
v -3.688874 0.660866 -0.258649
v -3.703045 -0.659618 -0.296273
v -3.233993 0.922092 -0.349089
v -3.981215 0.002843 -0.224481
v -3.730388 -0.024705 -0.680693
v -2.978796 -0.999502 -0.134422
v -3.508550 0.559258 -0.655695
v -3.114624 -0.877447 -0.523704
v -3.319300 -0.301606 -0.916839
v -2.992569 0.490622 -0.920640
v -2.819909 -0.324845 -0.980776
v -2.413193 0.511821 -0.718338
v -2.136872 -0.202913 -0.616571
v -1.985119 0.195262 -0.340074
v -2.441858 -0.661907 -0.579689
v -2.572848 -0.953744 -0.103815
v -2.320714 0.828742 0.037283
v -2.050184 -0.513820 -0.045526
v -2.279086 -0.768454 0.193167
v -2.707456 0.950774 -0.300153
v -2.415053 0.638309 0.617301
v -2.017874 0.297754 0.309710
v -2.310990 0.115095 0.794084
v -2.219981 -0.491432 0.554020
v -2.831392 -0.941507 0.363511
v -3.158598 0.765244 0.660955
v -2.747727 -0.495844 0.900893
v -3.027114 0.278701 1.002142
v -3.233288 -0.647573 0.776532
v -3.358156 0.910875 0.195906
v -3.559462 0.076526 0.832438
v -3.720888 -0.533491 0.419894
v -3.697787 0.589681 0.373093
v -3.295106 -0.946963 0.173311
v -2.976542 1.018997 0.099943
v -3.928555 0.113791 0.329227
vn -0.510247 0.854350 -0.098662
vn -0.842083 -0.305419 -0.444539
vn -0.326562 -0.928426 -0.177154
vn -0.471855 -0.605349 -0.641019
vn -0.426416 0.199753 -0.882195
vn -0.406414 0.163300 -0.898978
vn -0.129487 -0.590076 -0.796896
vn 0.012084 0.800504 -0.599206
vn 0.322052 0.137267 -0.936718
vn 0.130536 -0.932121 -0.337803
vn 0.724094 0.185350 -0.664329
vn 0.733939 0.589641 -0.337131
vn 0.637785 -0.722304 -0.267407
vn 0.995962 -0.066197 0.060647
vn 0.746352 0.586797 0.314051
vn 0.825271 -0.505102 0.252585
vn 0.280745 0.959451 0.025214
vn 0.864645 -0.067311 0.497853
vn 0.291822 0.893669 0.340876
vn 0.352583 -0.909820 0.218888
vn 0.372539 -0.742002 0.557358
vn 0.273167 -0.027165 0.961583
vn 0.335274 0.360746 0.870318
vn -0.169411 0.917444 0.359995
vn -0.529592 0.482034 0.697980
vn -0.799903 -0.176278 0.573656
vn -0.482705 0.755125 0.443602
vn -0.947663 -0.283458 0.146925
vn -0.657020 -0.745073 0.114848
vn 0.105338 -0.990863 0.084224
vn -0.040616 -0.991013 0.127448
vn -0.919252 -0.390978 0.045954
vn -0.900504 0.433344 0.036124
vn -0.913750 0.406240 0.005503
vn -0.282711 0.958164 -0.044687
vn -0.405673 -0.893166 -0.194122
vn -0.820215 0.340532 -0.459657
vn -0.818318 0.330981 -0.469902
vn -0.647010 -0.415108 -0.639580
vn -0.512943 0.746414 -0.423975
vn -0.235761 0.725130 -0.646995
vn -0.124719 0.046681 -0.991093
vn 0.157432 -0.677912 -0.718088
vn -0.035657 0.980895 -0.191240
vn 0.486727 -0.386368 -0.783465
vn 0.462498 0.052788 -0.885048
vn 0.196567 0.742183 -0.640723
vn 0.235962 -0.855992 -0.460000
vn 0.747608 -0.529023 -0.401518
vn 0.561687 0.736198 -0.377518
vn 0.645396 -0.743670 -0.174413
vn 0.950011 -0.190065 -0.247698
vn 0.875188 0.482721 -0.032022
vn 0.948522 -0.157926 0.274527
vn 0.740996 0.342531 0.577580
vn 0.534539 -0.240474 0.810210
vn 0.397066 -0.758269 0.517075
vn 0.147873 0.594313 0.790523
vn 0.175818 0.874263 0.452495
vn -0.186364 -0.193148 0.963308
vn -0.175123 -0.874635 0.452045
vn 0.080610 -0.773363 0.628817
vn -0.236035 -0.180049 0.954919
vn -0.420462 0.442014 0.792361
vn -0.606427 -0.329055 0.723857
vn -0.754690 0.312804 0.576711
vn -0.490251 -0.759664 0.427276
vn -0.664438 0.743629 0.074419
usemtl None
s off
f 143//96 116//96 114//96
f 117//97 118//97 115//97
f 147//98 121//98 119//98
f 115//99 122//99 121//99
f 118//100 120//100 123//100
f 118//101 123//101 122//101
f 122//102 124//102 121//102
f 116//103 133//103 123//103
f 123//104 125//104 124//104
f 119//105 121//105 129//105
f 126//106 125//106 127//106
f 125//107 130//107 127//107
f 129//108 128//108 131//108
f 127//109 135//109 131//109
f 135//110 130//110 134//110
f 131//111 137//111 132//111
f 133//112 148//112 130//112
f 135//113 136//113 137//113
f 130//114 148//114 134//114
f 129//115 132//115 138//115
f 138//116 137//116 140//116
f 140//117 136//117 141//117
f 136//118 134//118 141//118
f 148//119 143//119 139//119
f 139//120 146//120 144//120
f 144//121 149//121 145//121
f 139//122 143//122 146//122
f 149//123 117//123 145//123
f 147//124 145//124 115//124
f 119//125 129//125 138//125
f 119//126 138//126 147//126
f 145//127 117//127 115//127
f 149//128 146//128 114//128
f 149//129 114//129 117//129
f 116//130 143//130 148//130
f 121//131 147//131 115//131
f 117//132 114//132 120//132
f 118//133 117//133 120//133
f 115//134 118//134 122//134
f 114//135 116//135 120//135
f 120//136 116//136 123//136
f 122//137 123//137 124//137
f 121//138 124//138 128//138
f 116//139 148//139 133//139
f 128//140 124//140 126//140
f 124//141 125//141 126//141
f 123//142 133//142 125//142
f 129//143 121//143 128//143
f 131//144 128//144 126//144
f 125//145 133//145 130//145
f 129//146 131//146 132//146
f 126//147 127//147 131//147
f 127//148 130//148 135//148
f 131//149 135//149 137//149
f 136//150 135//150 134//150
f 137//151 136//151 140//151
f 138//152 132//152 137//152
f 141//153 134//153 139//153
f 134//154 148//154 139//154
f 142//155 140//155 141//155
f 147//156 138//156 142//156
f 138//157 140//157 142//157
f 144//158 142//158 141//158
f 141//159 139//159 144//159
f 142//160 144//160 145//160
f 149//161 144//161 146//161
f 147//162 142//162 145//162
f 114//163 146//163 143//163
