# Blender v2.69 (sub 0) OBJ File: '3_triangle.blend'
# www.blender.org
mtllib 3_triangle.mtl
o BezierCurve.001_Mesh.001
v 3.629548 2.508982 0.061166
v 3.871182 2.445761 0.262937
v 3.642846 2.338742 0.289714
v 3.731623 1.965307 0.017589
v 4.102022 1.938902 0.024284
v 3.914115 2.124557 -0.119454
v 3.953875 1.838458 0.199737
v 4.038460 1.621825 -0.065884
v 4.775773 0.431447 0.664232
v 4.514238 0.321419 0.694802
v 4.357121 0.720896 0.362325
v 4.411393 0.902617 0.599252
v 4.731621 0.381957 0.493050
v 4.577822 0.301362 0.429360
v 2.213830 0.123807 0.126364
v 2.366087 0.010083 0.278435
v 2.183835 -0.120320 0.096347
v 2.621051 -0.084069 0.090255
v 2.678599 0.064789 -0.183748
v 2.786759 0.053086 0.076845
v 2.880495 -0.128186 -0.136245
v 4.264755 0.020072 0.082385
v 4.266201 0.117393 0.239660
v 3.833996 0.038071 0.283153
v 4.264817 -0.112959 0.323063
v 4.265509 -0.128650 0.145733
v 1.556884 0.784800 0.416654
v 1.572955 0.533515 0.244020
v 1.301114 0.708694 0.225001
v 1.761275 0.845267 0.202872
v 1.742939 1.104491 0.136335
v 1.585213 0.865206 -0.078269
v 1.801508 1.228722 -0.143185
v 1.840161 1.353586 0.025759
v 1.934062 1.152480 0.145764
v 1.988863 1.187945 -0.164812
v 1.821275 0.869410 -0.033846
v 3.077897 2.458590 0.002549
v 2.780930 2.045214 0.008972
v 3.198823 2.372691 0.298747
v 2.982396 2.566000 0.279264
vn -0.639065 -0.376207 0.670868
vn -0.427347 0.432643 -0.793848
vn -0.884854 -0.369457 -0.283639
vn 0.929472 0.356945 -0.092807
vn 0.865560 0.336703 0.370726
vn 0.195593 0.278542 -0.940275
vn -0.575396 -0.531938 -0.621204
vn -0.692925 -0.224081 0.685304
vn -0.016938 -0.294534 -0.955473
vn 0.702067 0.126787 -0.700733
vn -0.045686 0.337291 0.940275
vn -0.050081 0.209998 0.976409
vn 0.743736 0.387529 0.544683
vn 0.106906 -0.614856 0.781335
vn -0.215926 0.860872 -0.460733
vn 0.625167 0.170823 0.761568
vn -0.041475 0.766411 0.640980
vn -0.164281 0.483902 -0.859554
vn 0.022980 -0.773827 -0.632954
vn -0.459105 -0.704881 -0.540708
vn 0.076908 0.932647 0.352497
vn 0.190157 0.321860 -0.927495
vn -0.024748 -0.548739 0.835627
vn -0.155156 0.333964 0.929716
vn 0.816187 -0.223823 0.532640
vn -0.182836 0.398480 0.898740
vn 0.187409 0.402340 0.896103
vn 0.386690 -0.881357 -0.271441
vn 0.596789 -0.670522 -0.440657
vn -0.924501 0.106456 -0.366012
vn -0.415632 -0.231330 -0.879574
vn -0.739158 0.666921 0.093844
vn -0.506790 0.364940 -0.780999
vn 0.302072 -0.331431 0.893796
vn 0.578655 -0.533079 0.617240
vn 0.127037 0.130726 -0.983246
vn 0.586169 -0.457747 -0.668447
vn 0.345317 -0.247719 -0.905179
vn -0.615953 0.555807 0.558284
vn -0.361316 -0.329455 -0.872302
vn 0.091875 -0.886902 -0.452729
usemtl None
s 1
f 3//1 1//2 4//3
f 3//1 5//4 2//5
f 1//2 6//6 4//3
f 11//7 10//8 4//3
f 8//9 13//10 11//7
f 10//8 12//11 7//12
f 10//8 9//13 12//11
f 18//14 15//15 16//16
f 15//15 20//17 19//18
f 19//18 21//19 17//20
f 19//18 23//21 22//22
f 21//19 25//23 18//14
f 25//23 24//24 20//17
f 24//24 25//23 23//21
f 30//25 31//26 27//27
f 28//28 37//29 30//25
f 29//30 32//31 28//28
f 28//28 32//31 37//29
f 29//30 34//32 33//33
f 35//34 31//26 30//25
f 40//35 31//26 35//34
f 33//33 38//36 39//37
f 39//37 40//35 36//38
f 31//26 41//39 34//32
f 34//32 41//39 38//36
f 38//36 40//35 39//37
f 2//5 6//6 1//2
f 2//5 5//4 6//6
f 5//4 3//1 7//12
f 4//3 7//12 3//1
f 6//6 8//9 4//3
f 6//6 5//4 8//9
f 8//9 5//4 13//10
f 4//3 10//8 7//12
f 8//9 11//7 4//3
f 5//4 7//12 12//11
f 5//4 9//13 13//10
f 5//4 12//11 9//13
f 11//7 13//10 14//40
f 11//7 14//40 10//8
f 16//16 17//20 18//14
f 15//15 19//18 17//20
f 18//14 17//20 21//19
f 15//15 18//14 20//17
f 19//18 20//17 23//21
f 18//14 25//23 20//17
f 19//18 22//22 21//19
f 20//17 24//24 23//21
f 21//19 26//41 25//23
f 21//19 22//22 26//41
f 27//27 31//26 29//30
f 27//27 28//28 30//25
f 32//31 29//30 33//33
f 29//30 31//26 34//32
f 32//31 33//33 36//38
f 32//31 36//38 37//29
f 30//25 37//29 35//34
f 36//38 33//33 39//37
f 37//29 40//35 35//34
f 33//33 34//32 38//36
f 36//38 40//35 37//29
f 31//26 40//35 41//39
o Sphere.002
v 2.536079 3.708882 -0.244686
v 2.415172 2.953014 -0.235242
v 2.711546 3.272692 -0.803443
v 3.004947 2.262792 -0.347748
v 3.314557 2.772230 -0.967320
v 3.239499 3.821352 -0.820154
v 3.769917 2.543504 -0.732066
v 3.722414 4.024539 -0.477016
v 3.815660 2.257278 -0.201593
v 3.855589 4.090594 0.074574
v 4.005531 3.533149 -0.779061
v 4.063604 3.023735 -0.775436
v 4.295959 3.710504 0.051379
v 4.436165 3.045837 -0.222353
v 3.954896 2.349200 0.287576
v 3.943401 3.841618 0.578139
v 4.015677 3.096023 0.853047
v 4.369848 3.027080 0.308846
v 3.669055 2.465572 0.692695
v 3.455971 3.172348 1.068133
v 3.357741 4.021212 0.606465
v 2.884437 2.748341 0.812793
v 3.287151 2.189479 0.264382
v 2.917450 3.492193 0.852253
v 2.716523 3.871369 0.385992
v 2.608200 2.521981 0.176588
v 2.455379 3.101075 0.416324
v 3.255663 4.204339 -0.086021
vn -0.558248 0.827942 -0.053588
vn -0.908037 0.140317 -0.394690
vn -0.456863 0.792752 -0.403509
vn -0.653756 -0.460777 -0.600240
vn -0.582366 0.541931 -0.605937
vn 0.107556 0.145652 -0.983472
vn -0.046811 -0.759970 -0.648271
vn 0.325529 -0.280622 -0.902930
vn 0.270245 0.612372 -0.742945
vn 0.723700 -0.579340 -0.374999
vn 0.864243 0.336367 -0.374086
vn 0.626997 0.741089 -0.240128
vn 0.731810 -0.490290 -0.473360
vn 0.979767 0.154060 0.127757
vn 0.227187 -0.966796 0.117009
vn 0.821030 0.276853 0.499261
vn 0.718316 -0.456184 0.525279
vn 0.287649 0.877513 0.383705
vn 0.190275 0.485949 0.853024
vn 0.285963 -0.380868 0.879298
vn -0.172834 -0.750493 0.637878
vn -0.380028 0.630664 0.676640
vn -0.310080 0.906824 0.285517
vn -0.682395 -0.008489 0.730935
vn -0.437281 -0.770399 0.463972
vn -0.777501 -0.404519 0.481515
vn -0.944861 -0.301882 0.126905
vn 0.016000 -0.991880 -0.126170
vn -0.928891 0.322109 0.182779
vn -0.752806 -0.598638 -0.273706
vn -0.572414 -0.469603 -0.672172
vn -0.045069 0.886110 -0.461279
vn -0.161651 0.125737 -0.978805
vn 0.080349 -0.874307 -0.478677
vn 0.241597 0.020638 -0.970157
vn 0.227240 0.958939 -0.169700
vn 0.685915 0.624642 -0.373287
vn 0.824348 0.089997 -0.558883
vn 0.780070 -0.616619 -0.106165
vn 0.848400 -0.522078 0.087481
vn 0.640472 0.726929 0.247727
vn 0.830938 0.261598 0.491029
vn 0.634134 -0.498900 0.590740
vn 0.119244 0.964073 0.237371
vn 0.377186 0.352359 0.856489
vn 0.200258 -0.895078 0.398412
vn -0.037788 -0.477646 0.877739
vn -0.073540 0.469902 0.879650
vn -0.388039 -0.031642 0.921100
vn -0.774249 0.284741 0.565208
vn -0.448022 -0.888396 0.100148
vn -0.987091 0.158205 0.024961
usemtl None
s off
f 66//42 69//42 42//42
f 42//43 44//43 43//43
f 69//44 47//44 42//44
f 45//45 43//45 44//45
f 44//46 42//46 47//46
f 47//47 52//47 46//47
f 45//48 46//48 48//48
f 46//49 53//49 48//49
f 52//50 47//50 49//50
f 50//51 48//51 55//51
f 52//52 54//52 55//52
f 49//53 51//53 54//53
f 48//54 53//54 55//54
f 59//55 55//55 54//55
f 64//56 50//56 56//56
f 59//57 54//57 58//57
f 56//58 59//58 58//58
f 51//59 62//59 57//59
f 57//60 62//60 61//60
f 60//61 58//61 61//61
f 60//62 63//62 64//62
f 65//63 62//63 66//63
f 62//64 69//64 66//64
f 63//65 65//65 68//65
f 64//66 63//66 67//66
f 67//67 63//67 68//67
f 68//68 43//68 67//68
f 64//69 45//69 50//69
f 68//70 66//70 42//70
f 45//71 67//71 43//71
f 46//72 45//72 44//72
f 47//73 69//73 49//73
f 44//74 47//74 46//74
f 50//75 45//75 48//75
f 46//76 52//76 53//76
f 49//77 69//77 51//77
f 52//78 49//78 54//78
f 55//79 53//79 52//79
f 50//80 55//80 56//80
f 56//81 55//81 59//81
f 57//82 54//82 51//82
f 58//83 54//83 57//83
f 60//84 56//84 58//84
f 51//85 69//85 62//85
f 58//86 57//86 61//86
f 64//87 56//87 60//87
f 63//88 60//88 61//88
f 61//89 62//89 65//89
f 63//90 61//90 65//90
f 68//91 65//91 66//91
f 64//92 67//92 45//92
f 43//93 68//93 42//93
o Sphere
v 4.821125 0.966422 -0.253392
v 4.284389 -0.417933 -0.373050
v 4.659904 -0.185005 -0.914322
v 4.753075 0.471468 -0.868136
v 4.937736 -0.836377 -0.505442
v 5.436055 -0.029809 -0.985929
v 5.373931 -0.620285 -0.777167
v 5.654271 0.510570 -0.779603
v 5.290184 0.845825 -0.605440
v 5.351857 -0.961961 -0.200939
v 5.961557 -0.411640 -0.524050
v 5.831783 0.830196 0.115997
v 6.093962 0.319136 -0.316689
v 5.454865 -0.943869 0.246877
v 6.108938 -0.426874 0.113515
v 6.050498 0.174210 0.535080
v 5.456180 -0.640654 0.736303
v 5.473592 0.121356 1.008590
v 5.470000 0.662988 0.739228
v 4.879213 -0.286528 0.936250
v 4.561151 0.376880 0.797472
v 4.750148 -0.703936 0.615304
v 4.709731 -0.910282 0.003668
v 4.219083 -0.345830 0.315993
v 5.028926 0.943184 0.475827
v 5.231084 1.042159 -0.084836
v 4.424787 0.774875 -0.063625
v 4.140329 0.252400 -0.092205
vn -0.553998 -0.751962 -0.357266
vn -0.510326 -0.602728 -0.613422
vn -0.143148 -0.968307 -0.204673
vn 0.078265 0.327867 -0.941476
vn 0.061927 0.512250 -0.856601
vn 0.470945 -0.337681 -0.814974
vn 0.462588 -0.770253 -0.439002
vn 0.735733 0.058166 -0.674769
vn 0.523607 0.764240 -0.376527
vn 0.967689 -0.111102 -0.226348
vn 0.666618 0.650353 -0.364228
vn 0.592761 -0.790144 -0.155904
vn 0.996688 0.054706 0.060167
vn 0.598392 -0.420238 0.682149
vn 0.648730 0.551389 0.524518
vn 0.303802 0.861229 0.407417
vn -0.082364 0.443339 0.892562
vn -0.014069 -0.849980 0.526627
vn -0.194532 0.110620 0.974639
vn -0.626314 -0.344175 0.699482
vn -0.569896 0.707812 0.417397
vn -0.901057 0.157191 0.404211
vn -0.217731 0.971567 0.093007
vn -0.062773 -0.996528 0.054699
vn -0.980916 -0.179734 -0.074161
vn -0.755558 -0.655074 -0.003061
vn -0.831066 0.053341 -0.553610
vn -0.760912 0.440340 -0.476564
vn -0.796124 0.154160 -0.585167
vn -0.557495 0.675699 -0.482318
vn -0.202955 -0.581227 -0.788025
vn -0.246206 0.768068 -0.591147
vn -0.108388 0.085067 -0.990462
vn -0.026500 0.934348 -0.355376
vn -0.020779 -0.331313 -0.943292
vn 0.110609 -0.856731 -0.503763
vn 0.666424 0.015496 -0.745412
vn 0.401874 0.870923 -0.282827
vn 0.631582 -0.766838 -0.114298
vn 0.919309 0.377515 0.111143
vn 0.614903 -0.671115 0.414125
vn 0.709967 -0.251298 0.657872
vn 0.569189 0.369143 0.734682
vn 0.245357 0.935663 0.253643
vn 0.117234 -0.336544 0.934342
vn -0.084556 -0.590802 0.802373
vn -0.126221 0.566702 0.814197
vn -0.148154 -0.934068 0.324913
vn -0.666978 -0.167921 0.725909
vn -0.377236 0.915975 0.136688
vn -0.640769 -0.713632 0.283098
vn -0.835369 0.436538 0.334055
usemtl None
s off
f 92//94 71//94 74//94
f 71//95 72//95 74//95
f 79//96 92//96 74//96
f 73//97 77//97 75//97
f 73//98 78//98 77//98
f 75//99 80//99 76//99
f 79//100 76//100 80//100
f 80//101 77//101 82//101
f 78//102 81//102 77//102
f 80//103 82//103 84//103
f 77//104 81//104 82//104
f 83//105 80//105 84//105
f 82//106 85//106 84//106
f 85//107 87//107 84//107
f 81//108 88//108 85//108
f 88//109 81//109 94//109
f 88//110 90//110 87//110
f 83//111 86//111 91//111
f 89//112 87//112 90//112
f 91//113 89//113 93//113
f 90//114 94//114 96//114
f 90//115 97//115 93//115
f 94//116 95//116 70//116
f 79//117 83//117 92//117
f 93//118 97//118 71//118
f 71//119 92//119 93//119
f 72//120 71//120 97//120
f 97//121 96//121 73//121
f 72//122 97//122 73//122
f 96//123 70//123 73//123
f 74//124 72//124 76//124
f 73//125 70//125 78//125
f 72//126 73//126 75//126
f 70//127 95//127 78//127
f 72//128 75//128 76//128
f 79//129 74//129 76//129
f 80//130 75//130 77//130
f 78//131 95//131 81//131
f 79//132 80//132 83//132
f 85//133 82//133 81//133
f 83//134 84//134 86//134
f 84//135 87//135 86//135
f 85//136 88//136 87//136
f 81//137 95//137 94//137
f 86//138 87//138 89//138
f 91//139 86//139 89//139
f 88//140 94//140 90//140
f 92//141 83//141 91//141
f 89//142 90//142 93//142
f 96//143 94//143 70//143
f 91//144 93//144 92//144
f 90//145 96//145 97//145
o Sphere.001
v 1.188089 0.966422 -0.253392
v 0.651352 -0.417933 -0.373050
v 1.026868 -0.185005 -0.914322
v 1.120038 0.471468 -0.868136
v 1.304699 -0.836377 -0.505442
v 1.803019 -0.029809 -0.985929
v 1.740895 -0.620285 -0.777167
v 2.021235 0.510570 -0.779603
v 1.657148 0.845825 -0.605440
v 1.718821 -0.961961 -0.200939
v 2.328521 -0.411640 -0.524050
v 2.041570 0.918651 0.052590
v 2.460926 0.319136 -0.316689
v 2.497092 -0.275536 -0.112382
v 2.338995 0.628374 0.179935
v 1.821829 -0.943869 0.246877
v 2.306686 -0.562538 0.323686
v 2.417462 0.174210 0.535080
v 1.823144 -0.640654 0.736303
v 1.840555 0.121356 1.008590
v 1.836964 0.662988 0.739228
v 1.246176 -0.286528 0.936250
v 0.928114 0.376880 0.797472
v 1.117112 -0.703936 0.615304
v 1.076695 -0.910282 0.003668
v 0.586047 -0.345830 0.315993
v 1.395890 0.943184 0.475827
v 1.598047 1.042159 -0.084836
v 0.791750 0.774875 -0.063625
v 0.507293 0.252400 -0.092205
vn -0.553998 -0.751962 -0.357266
vn -0.510326 -0.602728 -0.613422
vn -0.143148 -0.968307 -0.204673
vn 0.078265 0.327867 -0.941476
vn 0.061927 0.512250 -0.856601
vn 0.470945 -0.337681 -0.814974
vn 0.462588 -0.770253 -0.439002
vn 0.735733 0.058166 -0.674770
vn 0.517646 0.763136 -0.386867
vn 0.930902 -0.066764 -0.359116
vn 0.655787 0.671378 -0.345247
vn 0.625427 -0.770828 -0.121099
vn 0.994460 0.082752 0.064825
vn 0.938879 -0.217686 0.266683
vn 0.621342 -0.300993 0.723421
vn 0.643922 0.537230 0.544747
vn 0.301664 0.860599 0.410326
vn -0.082364 0.443339 0.892562
vn -0.014069 -0.849980 0.526627
vn -0.194532 0.110620 0.974639
vn -0.626314 -0.344174 0.699482
vn -0.569896 0.707812 0.417397
vn -0.901057 0.157191 0.404211
vn -0.217730 0.971567 0.093007
vn -0.062773 -0.996528 0.054700
vn -0.980916 -0.179735 -0.074160
vn -0.755559 -0.655074 -0.003061
vn -0.831066 0.053341 -0.553610
vn -0.760912 0.440341 -0.476563
vn -0.796125 0.154159 -0.585167
vn -0.557495 0.675699 -0.482318
vn -0.202955 -0.581228 -0.788025
vn -0.246206 0.768068 -0.591147
vn -0.108388 0.085067 -0.990462
vn -0.026500 0.934348 -0.355376
vn -0.020779 -0.331313 -0.943292
vn 0.110609 -0.856731 -0.503763
vn 0.666424 0.015496 -0.745412
vn 0.340589 0.891846 -0.297674
vn 0.631583 -0.766837 -0.114299
vn 0.728156 0.647610 -0.224479
vn 0.756296 -0.647189 -0.095721
vn 0.967286 0.237288 0.089732
vn 0.505507 -0.734076 0.453425
vn 0.529513 0.731215 0.430046
vn 0.649980 -0.268843 0.710809
vn 0.569189 0.369143 0.734681
vn 0.191693 0.952350 0.237240
vn 0.117234 -0.336545 0.934341
vn -0.084556 -0.590802 0.802373
vn -0.126221 0.566702 0.814197
vn -0.148154 -0.934067 0.324913
vn -0.666978 -0.167920 0.725909
vn -0.377237 0.915974 0.136689
vn -0.640769 -0.713632 0.283098
vn -0.835370 0.436537 0.334055
usemtl None
s off
f 122//146 99//146 102//146
f 99//147 100//147 102//147
f 107//148 122//148 102//148
f 101//149 105//149 103//149
f 101//150 106//150 105//150
f 103//151 108//151 104//151
f 107//152 104//152 108//152
f 108//153 105//153 110//153
f 106//154 109//154 105//154
f 108//155 110//155 111//155
f 105//156 109//156 110//156
f 113//157 108//157 114//157
f 110//158 115//158 111//158
f 111//159 115//159 114//159
f 115//160 117//160 114//160
f 112//161 118//161 115//161
f 118//162 109//162 124//162
f 118//163 120//163 117//163
f 113//164 116//164 121//164
f 119//165 117//165 120//165
f 121//166 119//166 123//166
f 120//167 124//167 126//167
f 120//168 127//168 123//168
f 124//169 125//169 98//169
f 107//170 113//170 122//170
f 123//171 127//171 99//171
f 99//172 122//172 123//172
f 100//173 99//173 127//173
f 127//174 126//174 101//174
f 100//175 127//175 101//175
f 126//176 98//176 101//176
f 102//177 100//177 104//177
f 101//178 98//178 106//178
f 100//179 101//179 103//179
f 98//180 125//180 106//180
f 100//181 103//181 104//181
f 107//182 102//182 104//182
f 108//183 103//183 105//183
f 106//184 125//184 109//184
f 107//185 108//185 113//185
f 110//186 109//186 112//186
f 114//187 108//187 111//187
f 115//188 110//188 112//188
f 113//189 114//189 116//189
f 118//190 112//190 109//190
f 114//191 117//191 116//191
f 115//192 118//192 117//192
f 109//193 125//193 124//193
f 116//194 117//194 119//194
f 121//195 116//195 119//195
f 118//196 124//196 120//196
f 122//197 113//197 121//197
f 119//198 120//198 123//198
f 126//199 124//199 98//199
f 121//200 123//200 122//200
f 120//201 126//201 127//201
