# Blender v2.69 (sub 0) OBJ File: 'heart.blend'
# www.blender.org
mtllib heart.mtl
o Sphere
v -0.674345 1.566007 -0.367185
v -1.416221 1.394217 -0.063005
v -1.431748 0.085800 0.484729
v -1.093846 0.917840 -0.941936
v -1.309230 -0.182730 -0.592883
v -0.447445 -0.951420 0.008516
v -0.076024 1.182868 -0.264824
v -0.767858 -0.337229 -0.903559
v 0.046875 0.424160 -0.903872
v 0.000000 -1.437452 0.000000
v 0.478516 -0.443194 -0.906921
v 1.093846 0.917840 -0.941936
v 1.110685 -0.361380 -0.583401
v 0.674346 1.566008 -0.367185
v 0.705176 1.596820 0.436693
v 1.416221 1.394217 -0.063004
v 1.390744 0.044991 -0.626677
v 0.190641 1.262601 -0.256310
v 1.099160 1.042955 0.975648
v 1.310096 -0.182739 0.604245
v 0.036567 -1.279085 -0.077419
v -0.017914 1.150753 0.262288
v 0.000000 -1.087440 0.320940
v -0.068981 0.344519 0.928161
v 0.744538 -0.342530 0.897887
v -0.484497 -0.398684 0.929572
v -0.930503 0.834511 1.016128
v -1.139548 -0.297238 0.723606
v -0.724099 1.610656 0.395507
v -1.234754 1.149827 0.754486
vn -0.674253 -0.738151 0.022699
vn -0.950930 -0.109809 -0.289266
vn -0.253300 0.964630 -0.072996
vn 0.416404 0.437312 -0.797098
vn -0.450527 -0.805792 -0.384349
vn -0.379409 -0.334170 -0.862774
vn -0.569999 -0.760228 -0.311696
vn 0.022673 -0.024671 -0.999438
vn -0.060348 -0.686848 -0.724291
vn -0.201587 0.742424 -0.638881
vn -0.030773 -0.011800 -0.999457
vn 0.377717 -0.745139 -0.549635
vn 0.458014 -0.400183 -0.793773
vn -0.443325 0.416767 -0.793579
vn 0.897086 0.155801 -0.413477
vn 0.243395 0.968814 -0.046468
vn 0.960014 -0.123158 0.251405
vn 0.650905 -0.759144 0.004898
vn 0.445352 -0.785033 0.430563
vn 0.492021 -0.173814 0.853056
vn 0.976059 -0.146998 0.160314
vn 0.459075 -0.783377 0.419012
vn -0.008363 -0.053902 0.998511
vn -0.387973 0.601403 0.698420
vn 0.049053 -0.641781 0.765318
vn -0.584352 -0.548440 0.598119
vn -0.019071 0.627490 0.778391
vn -0.680014 -0.063199 0.730471
vn -0.287943 0.953425 0.089831
vn -0.961893 0.115219 0.247965
vn 0.540254 0.841461 -0.008293
vn -0.809752 -0.584324 0.053544
vn -0.978439 0.144761 -0.147315
vn -0.394851 0.739268 -0.545504
vn -0.525537 -0.162040 -0.835197
vn 0.301502 0.642336 -0.704629
vn -0.002504 0.002270 -0.999994
vn -0.303072 0.584721 -0.752495
vn 0.382339 -0.196088 -0.902976
vn 0.394853 0.739267 -0.545504
vn 0.985673 0.142095 0.090868
vn 0.505020 0.759043 0.410864
vn -0.533302 0.845840 -0.011967
vn 0.819705 -0.570436 -0.051829
vn -0.454973 0.433364 0.777943
vn -0.520446 0.853522 -0.025217
vn 0.026356 -0.012838 0.999570
vn -0.039377 -0.243227 0.969170
vn -0.274364 0.155195 0.949020
vn 0.397282 0.569297 0.719769
vn -0.521070 -0.740933 0.423681
vn -0.280872 -0.827878 0.485520
vn -0.684533 -0.057505 0.726710
vn 0.454025 0.479661 0.750858
vn -0.481749 0.804489 0.347441
vn 0.543865 0.839062 -0.013641
usemtl None
s off
f 6//1 28//1 5//1
f 3//2 2//2 4//2
f 29//3 1//3 2//3
f 4//4 1//4 7//4
f 6//5 5//5 8//5
f 10//6 6//6 21//6
f 6//7 8//7 21//7
f 8//8 4//8 9//8
f 21//9 8//9 11//9
f 7//10 18//10 12//10
f 9//11 12//11 11//11
f 11//12 13//12 21//12
f 11//13 17//13 13//13
f 18//14 14//14 12//14
f 12//15 16//15 17//15
f 16//16 14//16 15//16
f 17//17 16//17 19//17
f 21//18 13//18 20//18
f 21//19 20//19 25//19
f 20//20 19//20 25//20
f 10//21 21//21 23//21
f 21//22 25//22 23//22
f 25//23 19//23 24//23
f 19//24 22//24 24//24
f 23//25 25//25 26//25
f 23//26 6//26 10//26
f 27//27 29//27 30//27
f 28//28 27//28 3//28
f 18//29 7//29 22//29
f 30//30 2//30 3//30
f 22//31 7//31 1//31
f 28//32 3//32 5//32
f 5//33 3//33 4//33
f 4//34 2//34 1//34
f 5//35 4//35 8//35
f 9//36 4//36 7//36
f 11//37 8//37 9//37
f 9//38 7//38 12//38
f 11//39 12//39 17//39
f 12//40 14//40 16//40
f 20//41 17//41 19//41
f 16//42 15//42 19//42
f 15//43 14//43 18//43
f 13//44 17//44 20//44
f 19//45 15//45 22//45
f 15//46 18//46 22//46
f 26//47 25//47 24//47
f 24//48 27//48 28//48
f 26//49 24//49 28//49
f 24//50 22//50 27//50
f 23//51 26//51 6//51
f 26//52 28//52 6//52
f 3//53 27//53 30//53
f 27//54 22//54 29//54
f 2//55 30//55 29//55
f 29//56 22//56 1//56
