# Blender v2.69 (sub 0) OBJ File: 'kidney.blend'
# www.blender.org
mtllib kidney.mtl
o Icosphere
v -0.049993 1.193935 1.336866
v 0.195972 1.185705 1.208789
v 0.057085 1.079607 0.986235
v -0.358550 1.245522 1.122762
v -0.121600 1.196326 0.754782
v 0.347687 1.340799 1.001649
v -0.348251 1.567916 1.235346
v 0.089961 1.458351 0.688220
v 0.043736 1.552842 1.415040
v -0.299858 1.552842 0.790719
v 0.280685 1.681636 1.047059
v -0.091030 1.822373 1.093846
v 0.058392 1.692256 0.785372
vn 0.150036 -0.925558 0.347609
vn -0.301830 -0.929725 0.210975
vn -0.406681 -0.902592 -0.141202
vn 0.512429 -0.575619 -0.637244
vn 0.806106 0.001812 0.591768
vn -0.417898 -0.087819 0.904240
vn -0.261778 -0.033663 -0.964541
vn 0.360360 0.783480 0.506261
vn -0.287573 0.670829 0.683587
vn -0.727441 0.678520 -0.102177
vn 0.668970 -0.740489 -0.064462
vn 0.516426 -0.535120 -0.668544
vn 0.432944 -0.298339 0.850619
vn -0.579774 -0.252053 0.774811
vn -0.806690 -0.355780 -0.471881
vn 0.823410 0.087162 0.560713
vn -0.991419 0.070185 -0.110284
vn -0.154273 0.361156 -0.919656
vn 0.792236 0.230989 -0.564806
vn 0.721878 0.346282 -0.599150
vn -0.321340 0.806716 -0.495934
vn 0.318502 0.918773 -0.233267
usemtl None
s off
f 3//1 2//1 1//1
f 3//2 1//2 4//2
f 3//3 4//3 5//3
f 6//4 5//4 8//4
f 2//5 6//5 9//5
f 1//6 9//6 7//6
f 5//7 10//7 8//7
f 9//8 11//8 12//8
f 7//9 9//9 12//9
f 10//10 7//10 12//10
f 6//11 2//11 3//11
f 3//12 5//12 6//12
f 1//13 2//13 9//13
f 4//14 1//14 7//14
f 5//15 4//15 10//15
f 9//16 6//16 11//16
f 10//17 4//17 7//17
f 8//18 10//18 13//18
f 6//19 8//19 11//19
f 8//20 13//20 11//20
f 13//21 10//21 12//21
f 11//22 13//22 12//22
o Sphere
v -2.979526 -1.170054 2.502126
v -2.814391 -3.760531 2.875018
v -4.709991 -3.440090 0.456092
v -6.371091 -1.938500 0.445813
v -6.389830 -0.616008 -0.512682
v -3.616176 -1.956307 3.255509
v -3.744134 -4.208231 2.043219
v -5.882276 -2.310882 1.519497
v -4.785403 -0.936361 2.374952
v -6.111221 0.216962 1.787831
v -6.707843 0.661278 0.381556
v -4.491794 1.275982 2.358999
v -5.781923 2.696940 1.443879
v -3.870742 2.168628 3.033225
v -2.838325 1.943133 2.856503
v -3.271837 4.495716 1.959560
v -5.844013 1.169424 -0.956156
v -1.833070 2.514574 1.782245
v -2.395126 3.966078 2.800753
v -5.468608 3.142487 0.378280
v -2.605633 1.231294 0.541494
v -2.200059 4.075644 -0.903923
v -2.015824 3.191678 -1.572449
v -3.667009 2.153564 -2.071881
v -3.030269 1.742062 -1.789507
v -2.809165 0.506569 -0.653563
v -2.779891 -0.833798 0.755442
v -4.399872 1.128564 -2.267506
v -6.265780 0.323383 -1.244897
v -3.055364 -1.100596 -0.893924
v -4.598217 -0.902673 -2.219286
v -3.887764 -1.914767 -2.032777
v -3.032377 0.127163 1.788907
v -2.105128 -2.271566 1.661112
v -3.163550 -2.337251 -1.901530
v -5.219840 -1.404120 -0.835432
v -2.180445 -3.401231 -1.186929
vn 0.731233 0.186588 0.656113
vn -0.669605 -0.741112 0.048808
vn -0.504333 -0.386923 0.771971
vn 0.035684 0.676198 0.735855
vn -0.607119 -0.010015 0.794548
vn -0.918604 -0.123060 0.375531
vn -0.497663 -0.136006 0.856641
vn -0.978229 -0.130695 -0.161203
vn -0.927015 -0.111225 0.358151
vn -0.966268 -0.066363 -0.248841
vn -0.429673 0.179782 0.884907
vn -0.653408 -0.110992 0.748825
vn 0.004288 -0.604601 0.796517
vn -0.798537 0.508191 -0.322615
vn -0.828452 0.413270 -0.377989
vn -0.596258 0.787863 0.154104
vn -0.448854 0.467020 0.761855
vn 0.760345 -0.149159 0.632161
vn 0.479978 0.875787 0.051174
vn 0.681156 -0.677767 0.276872
vn -0.550303 0.698225 -0.457874
vn 0.917648 -0.276094 -0.285823
vn -0.122939 0.582198 -0.803698
vn 0.808574 -0.526512 -0.262666
vn 0.346797 -0.103098 -0.932257
vn 0.483137 -0.544170 -0.685899
vn -0.489395 0.027096 -0.871641
vn 0.989284 -0.094967 -0.110895
vn 0.711459 -0.003892 -0.702717
vn 0.771264 0.360149 -0.524828
vn -0.683341 -0.532205 -0.499802
vn -0.675286 -0.508191 -0.534538
vn 0.984337 0.114029 0.134455
vn -0.334357 -0.750313 -0.570295
vn 0.835162 0.514467 0.194494
vn -0.198036 -0.924131 -0.326746
vn -0.527786 -0.503341 -0.684171
vn 0.441419 -0.897240 -0.010473
vn 0.730435 0.060411 0.680305
vn -0.669980 -0.740820 0.048085
vn -0.524180 -0.380390 0.761931
vn 0.000640 0.481809 0.876276
vn 0.337493 -0.038008 0.940561
vn -0.363909 0.055000 0.929809
vn -0.884612 0.177280 0.431315
vn -0.057451 -0.501395 0.863309
vn -0.892074 0.445445 -0.076046
vn 0.166725 -0.009355 0.985959
vn -0.485941 0.466157 0.739296
vn -0.436200 0.559593 -0.704688
vn -0.359633 0.894429 -0.265820
vn 0.944195 0.324005 0.059298
vn 0.967850 -0.196057 0.157568
vn 0.963562 -0.001467 0.267482
vn -0.564000 0.524917 -0.637468
vn 0.360298 -0.080234 -0.929380
vn -0.572109 0.505608 -0.645796
vn 0.984253 0.014137 -0.176202
vn 0.958010 -0.051618 0.282049
vn 0.177155 -0.040642 -0.983343
vn 0.868280 0.265481 -0.419057
vn 0.981284 -0.128930 -0.143036
vn 0.123321 -0.095460 -0.987765
vn -0.662926 -0.557449 -0.499779
vn 0.913579 0.369154 -0.170583
vn -0.519219 -0.481699 -0.705958
vn 0.929361 0.307095 -0.204894
vn -0.365735 -0.727672 -0.580285
vn -0.493595 -0.550636 -0.673174
vn 0.929827 -0.349838 0.114173
usemtl None
s off
f 47//23 19//23 15//23
f 16//24 20//24 21//24
f 20//25 15//25 19//25
f 19//26 14//26 22//26
f 21//27 19//27 22//27
f 17//28 21//28 23//28
f 21//29 22//29 23//29
f 18//30 17//30 24//30
f 24//31 17//31 23//31
f 18//32 24//32 42//32
f 23//33 25//33 26//33
f 25//34 27//34 26//34
f 25//35 28//35 27//35
f 42//36 24//36 30//36
f 24//37 33//37 30//37
f 26//38 29//38 33//38
f 27//39 32//39 29//39
f 32//40 28//40 31//40
f 29//41 32//41 35//41
f 28//42 34//42 31//42
f 35//43 37//43 30//43
f 35//44 31//44 34//44
f 35//45 36//45 37//45
f 36//46 34//46 38//46
f 37//47 36//47 38//47
f 38//48 39//48 41//48
f 41//49 44//49 42//49
f 34//50 40//50 39//50
f 41//51 39//51 43//51
f 43//52 50//52 48//52
f 42//53 44//53 49//53
f 49//54 45//54 16//54
f 40//55 46//55 14//55
f 45//56 48//56 16//56
f 47//57 40//57 14//57
f 16//58 50//58 20//58
f 49//59 17//59 18//59
f 50//60 15//60 20//60
f 47//61 14//61 19//61
f 17//62 16//62 21//62
f 21//63 20//63 19//63
f 22//64 14//64 46//64
f 25//65 22//65 46//65
f 23//66 22//66 25//66
f 24//67 23//67 26//67
f 25//68 46//68 28//68
f 24//69 26//69 33//69
f 32//70 27//70 28//70
f 26//71 27//71 29//71
f 30//72 33//72 35//72
f 33//73 29//73 35//73
f 35//74 32//74 31//74
f 34//75 28//75 46//75
f 36//76 35//76 34//76
f 30//77 37//77 41//77
f 41//78 37//78 38//78
f 30//79 41//79 42//79
f 38//80 34//80 39//80
f 34//81 46//81 40//81
f 44//82 41//82 48//82
f 48//83 41//83 43//83
f 43//84 39//84 40//84
f 44//85 48//85 45//85
f 49//86 44//86 45//86
f 50//87 43//87 47//87
f 18//88 42//88 49//88
f 43//89 40//89 47//89
f 48//90 50//90 16//90
f 49//91 16//91 17//91
f 50//92 47//92 15//92
o Sphere.001
v 2.031954 -1.088941 -0.314598
v 1.697166 -3.467031 -0.361058
v 4.472450 -3.145052 0.090614
v 5.598140 -1.812024 -0.987625
v 6.199139 -0.572205 -0.404457
v 1.999437 -1.847938 -1.185095
v 2.841026 -3.873746 -0.354941
v 4.605399 -2.174325 -1.396501
v 3.331303 -0.916074 -1.352512
v 4.587472 0.124726 -1.820163
v 5.858353 0.560612 -1.255981
v 3.136400 1.116210 -1.248988
v 4.570271 2.413106 -1.483701
v 2.297415 1.927347 -1.356937
v 1.708893 1.752262 -0.591364
v 2.548990 4.105450 -0.354942
v 6.098895 1.089127 0.160642
v 1.690882 2.333946 0.732006
v 1.437920 3.616207 -0.361058
v 5.015274 2.862082 -0.588178
v 2.983346 1.179364 1.144843
v 3.593853 3.837662 2.258018
v 3.884617 3.054344 2.858753
v 5.312803 2.078948 2.218672
v 4.708868 1.709381 2.437303
v 3.861151 0.548642 1.855652
v 2.974821 -0.721418 0.975312
v 5.932178 1.128882 1.939542
v 6.564866 0.313495 0.129264
v 4.180611 -0.920626 1.930369
v 6.042212 -0.736316 1.865768
v 5.449303 -1.650626 2.218673
v 2.504603 0.119197 0.082807
v 1.963052 -2.048725 0.837309
v 4.879576 -2.023317 2.593836
v 5.609328 -1.254117 0.567178
v 3.776222 -2.994901 2.760278
vn -0.982964 0.183798 0.000563
vn 0.463803 -0.760282 -0.454816
vn -0.146959 -0.426730 -0.892359
vn -0.524607 0.651293 -0.548274
vn -0.087428 -0.053753 -0.994720
vn 0.425477 -0.160794 -0.890570
vn -0.209741 -0.178776 -0.961274
vn 0.831459 -0.151642 -0.534491
vn 0.443372 -0.148603 -0.883933
vn 0.881527 -0.084039 -0.464595
vn -0.279969 0.137589 -0.950098
vn -0.022108 -0.154325 -0.987773
vn -0.538431 -0.631213 -0.558267
vn 0.805668 0.497051 -0.322242
vn 0.865385 0.403307 -0.297408
vn 0.333986 0.765613 -0.549809
vn -0.183703 0.428249 -0.884791
vn -0.987289 -0.150015 0.052502
vn -0.391606 0.886244 0.247420
vn -0.687627 -0.668089 0.284298
vn 0.712991 0.698291 -0.063511
vn -0.484049 -0.241080 0.841176
vn 0.630959 0.605851 0.484598
vn -0.418357 -0.495017 0.761535
vn 0.372863 -0.061609 0.925839
vn 0.107403 -0.506998 0.855230
vn 0.949067 0.043647 0.312038
vn -0.655455 -0.064176 0.752502
vn -0.051501 0.039548 0.997890
vn -0.216725 0.398767 0.891075
vn 0.843248 -0.533140 -0.068511
vn 0.860650 -0.507739 -0.038509
vn -0.817882 0.136074 0.559064
vn 0.633743 -0.739134 0.228146
vn -0.749430 0.530014 0.396787
vn 0.369379 -0.917429 0.147931
vn 0.852616 -0.493753 0.171037
vn -0.316167 -0.884020 0.344308
vn -0.998305 0.056890 -0.012312
vn 0.464566 -0.759977 -0.454548
vn -0.125552 -0.420399 -0.898611
vn -0.592826 0.451324 -0.666981
vn -0.883337 -0.061041 -0.464747
vn -0.358430 0.013176 -0.933464
vn 0.361847 0.138271 -0.921926
vn -0.538194 -0.532074 -0.653639
vn 0.708663 0.423370 -0.564407
vn -0.787936 -0.038615 -0.614545
vn -0.141103 0.427152 -0.893102
vn 0.795586 0.571356 0.201483
vn 0.442091 0.892908 -0.085273
vn -0.738199 0.347334 0.578291
vn -0.820349 -0.174955 0.544442
vn -0.891892 0.015563 0.451982
vn 0.844737 0.530933 0.067303
vn 0.360884 -0.038498 0.931816
vn 0.856398 0.511708 0.068826
vn -0.608034 0.046925 0.792523
vn -0.897463 -0.035190 0.439685
vn 0.532391 -0.002074 0.846496
vn -0.359399 0.303202 0.882554
vn -0.627771 -0.097221 0.772303
vn 0.575293 -0.058152 0.815878
vn 0.828234 -0.557807 -0.053670
vn -0.560715 0.399489 0.725263
vn 0.860915 -0.471153 0.191936
vn -0.549044 0.339094 0.763915
vn 0.663582 -0.717025 0.213385
vn 0.820097 -0.540451 0.188028
vn -0.762541 -0.328135 0.557546
usemtl None
s off
f 84//93 56//93 52//93
f 53//94 57//94 58//94
f 57//95 52//95 56//95
f 56//96 51//96 59//96
f 58//97 56//97 59//97
f 54//98 58//98 60//98
f 58//99 59//99 60//99
f 55//100 54//100 61//100
f 61//101 54//101 60//101
f 55//102 61//102 79//102
f 60//103 62//103 63//103
f 62//104 64//104 63//104
f 62//105 65//105 64//105
f 79//106 61//106 67//106
f 61//107 70//107 67//107
f 63//108 66//108 70//108
f 64//109 69//109 66//109
f 69//110 65//110 68//110
f 66//111 69//111 72//111
f 65//112 71//112 68//112
f 72//113 74//113 67//113
f 72//114 68//114 71//114
f 72//115 73//115 74//115
f 73//116 71//116 75//116
f 74//117 73//117 75//117
f 75//118 76//118 78//118
f 78//119 81//119 79//119
f 71//120 77//120 76//120
f 78//121 76//121 80//121
f 80//122 87//122 85//122
f 79//123 81//123 86//123
f 86//124 82//124 53//124
f 77//125 83//125 51//125
f 82//126 85//126 53//126
f 84//127 77//127 51//127
f 53//128 87//128 57//128
f 86//129 54//129 55//129
f 87//130 52//130 57//130
f 84//131 51//131 56//131
f 54//132 53//132 58//132
f 58//133 57//133 56//133
f 59//134 51//134 83//134
f 62//135 59//135 83//135
f 60//136 59//136 62//136
f 61//137 60//137 63//137
f 62//138 83//138 65//138
f 61//139 63//139 70//139
f 69//140 64//140 65//140
f 63//141 64//141 66//141
f 67//142 70//142 72//142
f 70//143 66//143 72//143
f 72//144 69//144 68//144
f 71//145 65//145 83//145
f 73//146 72//146 71//146
f 67//147 74//147 78//147
f 78//148 74//148 75//148
f 67//149 78//149 79//149
f 75//150 71//150 76//150
f 71//151 83//151 77//151
f 81//152 78//152 85//152
f 85//153 78//153 80//153
f 80//154 76//154 77//154
f 81//155 85//155 82//155
f 86//156 81//156 82//156
f 87//157 80//157 84//157
f 55//158 79//158 86//158
f 80//159 77//159 84//159
f 85//160 87//160 53//160
f 86//161 53//161 54//161
f 87//162 84//162 52//162
o Icosphere.001
v -1.658327 0.362927 0.155225
v -1.273182 0.350040 -0.045324
v -1.142091 0.450185 -0.456574
v -1.490658 0.183905 -0.393812
v -2.020745 0.332683 -0.159213
v -1.877582 0.332682 -0.634974
v -1.623796 0.450182 -0.803577
v -1.030942 0.776962 -0.298570
v -1.439179 0.776962 0.263320
v -2.183694 0.612226 -0.203328
v -2.125354 0.948526 -0.003741
v -2.099722 0.776962 -0.645837
v -1.439179 0.776962 -0.860460
v -1.619701 1.043082 0.206436
v -1.920244 1.043081 -0.705924
v -1.140533 1.126595 -0.298570
v -1.722584 1.346969 -0.225309
v -1.488611 1.143225 -0.708334
vn 0.150035 -0.925558 0.347610
vn -0.150191 -0.952555 0.264728
vn -0.306727 -0.947312 -0.092297
vn 0.897993 -0.397091 0.189548
vn -0.453864 -0.247860 -0.855905
vn 0.528689 -0.426444 -0.733917
vn 0.804134 -0.109709 0.584237
vn -0.372102 -0.045091 0.927096
vn -0.309005 0.009028 -0.951018
vn 0.808985 0.009029 -0.587761
vn 0.363093 0.800463 0.476888
vn -0.378910 0.711860 0.591340
vn -0.731371 0.670739 -0.123315
vn 0.607060 -0.794656 -0.000003
vn -0.819796 -0.516798 -0.246687
vn 0.422418 -0.691166 -0.586390
vn 0.021481 -0.835112 -0.549660
vn 0.406549 -0.426172 0.808143
vn -0.675213 -0.286309 0.679790
vn -0.613333 -0.289682 0.734784
vn -0.844168 -0.429914 -0.320240
vn 0.573147 0.523544 0.630400
vn 0.784196 0.245804 0.569751
vn -0.374264 -0.056026 0.925628
vn -0.834226 0.523521 -0.173183
vn -0.968812 0.227016 -0.099332
vn -0.091337 0.371435 -0.923955
vn -0.309011 -0.006331 -0.951037
vn 0.784196 0.245804 -0.569751
vn 0.721878 0.346282 -0.599151
vn -0.202850 0.863180 -0.462355
vn 0.318502 0.918773 -0.233266
usemtl None
s off
f 91//163 89//163 88//163
f 91//164 88//164 92//164
f 91//165 92//165 93//165
f 89//166 90//166 95//166
f 94//167 93//167 99//167
f 90//168 94//168 100//168
f 89//169 95//169 96//169
f 88//170 96//170 98//170
f 94//171 99//171 100//171
f 90//172 100//172 95//172
f 101//173 103//173 104//173
f 98//174 101//174 104//174
f 102//175 98//175 104//175
f 90//176 89//176 91//176
f 92//177 97//177 93//177
f 91//178 94//178 90//178
f 91//179 93//179 94//179
f 88//180 89//180 96//180
f 97//181 92//181 98//181
f 92//182 88//182 98//182
f 93//183 97//183 99//183
f 96//184 103//184 101//184
f 96//185 95//185 103//185
f 98//186 96//186 101//186
f 99//187 98//187 102//187
f 99//188 97//188 98//188
f 100//189 102//189 105//189
f 100//190 99//190 102//190
f 95//191 100//191 103//191
f 100//192 105//192 103//192
f 105//193 102//193 104//193
f 103//194 105//194 104//194
o Icosphere.002
v 1.036098 -0.383058 0.557630
v 1.650356 -0.383059 0.358042
v 1.395586 -0.256762 0.618978
v 1.817519 -0.255356 -0.166373
v 1.373037 -0.594909 -0.086341
v 0.697083 -0.405191 0.212814
v 1.088627 -0.491256 -0.325740
v 0.709202 -0.256761 -0.325741
v 1.203261 -0.255360 -0.608862
v 1.892256 0.122666 0.258126
v 1.892256 0.122666 -0.187907
v 1.438681 0.161342 0.751617
v 0.489295 -0.048726 0.156559
v 0.781664 0.122666 0.618981
v 0.781664 0.122666 -0.548763
v 0.519489 0.122666 -0.187907
v 1.630081 0.122666 -0.548763
v 1.205873 0.122666 -0.686596
v 1.208484 0.500691 0.679080
v 0.594226 0.500688 0.236592
v 0.825239 0.500689 -0.484338
v 1.819134 0.500689 -0.161404
v 1.269722 0.840241 0.231622
v 1.714662 0.650523 0.212814
v 0.903544 0.813807 0.035109
v 1.375647 0.628390 -0.487411
vn 0.118876 -0.923047 0.365858
vn -0.168589 -0.959117 0.227317
vn -0.295123 -0.953433 -0.062198
vn 0.899642 -0.392549 0.191179
vn -0.058554 -0.296382 0.953273
vn -0.458324 -0.383696 -0.801696
vn 0.516246 -0.468948 -0.716643
vn 0.711968 -0.208044 0.670685
vn -0.181773 -0.208044 0.961081
vn -0.303393 -0.189914 -0.933748
vn 0.794296 -0.189910 -0.577086
vn 0.335581 0.727730 0.598159
vn -0.393274 0.739792 0.545934
vn -0.763895 0.597115 -0.244780
vn 0.184681 -0.801768 0.568385
vn 0.607060 -0.794656 -0.000003
vn -0.386584 -0.625515 -0.677705
vn -0.510474 -0.825973 -0.239133
vn -0.841378 -0.515874 -0.161113
vn 0.422418 -0.691165 -0.586390
vn 0.198750 -0.791021 -0.578605
vn 0.981800 0.189915 0.000000
vn 0.981011 -0.193952 0.000000
vn 0.607701 -0.296376 0.736791
vn -0.856491 0.089529 0.508339
vn -0.735091 -0.335522 0.589123
vn -0.640068 -0.401492 0.655071
vn -0.794296 0.189909 -0.577087
vn -0.794656 -0.187595 -0.577348
vn -0.898609 -0.356293 -0.256042
vn 0.298271 0.261426 -0.917982
vn 0.303149 -0.193949 -0.932997
vn 0.505409 0.494061 0.707436
vn 0.714907 0.294947 0.633967
vn 0.936212 0.326206 0.130755
vn -0.516246 0.468948 0.716643
vn -0.201448 0.072151 0.976838
vn -0.841100 0.468947 -0.269519
vn -0.982405 0.186642 0.006755
vn -0.096184 0.392549 -0.914688
vn -0.303149 0.193951 -0.932997
vn 0.793657 0.193947 -0.576622
vn 0.615450 0.392552 -0.683465
vn -0.343936 0.770078 0.537297
vn 0.076402 0.959423 -0.271422
vn -0.200403 0.852127 -0.483444
vn 0.375890 0.902436 -0.210512
vn 0.423095 0.875742 -0.232523
usemtl None
s off
f 110//195 107//195 106//195
f 110//196 106//196 111//196
f 110//197 111//197 112//197
f 107//198 109//198 115//198
f 106//199 108//199 117//199
f 114//200 113//200 120//200
f 109//201 114//201 122//201
f 107//202 115//202 117//202
f 106//203 117//203 119//203
f 114//204 120//204 123//204
f 109//205 122//205 116//205
f 124//206 129//206 128//206
f 125//207 124//207 130//207
f 126//208 125//208 130//208
f 106//209 107//209 108//209
f 109//210 107//210 110//210
f 112//211 113//211 114//211
f 112//212 111//212 113//212
f 111//213 118//213 113//213
f 110//214 114//214 109//214
f 110//215 112//215 114//215
f 115//216 116//216 127//216
f 115//217 109//217 116//217
f 108//218 107//218 117//218
f 118//219 119//219 125//219
f 118//220 111//220 119//220
f 111//221 106//221 119//221
f 120//222 121//222 126//222
f 120//223 113//223 121//223
f 113//224 118//224 121//224
f 122//225 123//225 131//225
f 122//226 114//226 123//226
f 117//227 129//227 124//227
f 117//228 115//228 129//228
f 115//229 127//229 129//229
f 119//230 124//230 125//230
f 119//231 117//231 124//231
f 121//232 125//232 126//232
f 121//233 118//233 125//233
f 123//234 126//234 131//234
f 123//235 120//235 126//235
f 116//236 122//236 127//236
f 122//237 131//237 127//237
f 130//238 124//238 128//238
f 131//239 130//239 128//239
f 131//240 126//240 130//240
f 129//241 131//241 128//241
f 129//242 127//242 131//242
o Icosphere.003
v -0.711840 -0.838084 1.303669
v -0.372322 -0.838084 1.193351
v -0.513140 -0.768277 1.337578
v -0.279926 -0.767499 0.903491
v -0.525604 -0.955180 0.947728
v -0.899224 -0.850318 1.113079
v -0.798319 -0.850318 0.777750
v -0.619444 -0.767501 0.658915
v -0.201585 -0.537178 1.014857
v -0.489321 -0.537178 1.410892
v -1.014074 -0.653289 1.081986
v -0.852473 -0.558556 1.337580
v -0.954888 -0.537179 0.770094
v -0.489321 -0.537178 0.618822
v -0.616558 -0.349610 1.370798
v -0.956076 -0.349612 1.126222
v -0.828388 -0.349611 0.727743
v -0.279033 -0.349611 0.906238
v -0.582709 -0.161931 1.123475
v -0.336778 -0.266794 1.113079
v -0.785106 -0.176542 1.014857
v -0.524162 -0.279027 0.726044
vn 0.118876 -0.923047 0.365859
vn -0.168589 -0.959117 0.227316
vn -0.306727 -0.947312 -0.092296
vn 0.897992 -0.397091 0.189548
vn -0.058553 -0.296382 0.953273
vn -0.453865 -0.247859 -0.855905
vn 0.528689 -0.426444 -0.733917
vn 0.804134 -0.109709 0.584237
vn -0.181773 -0.208045 0.961081
vn -0.309004 0.009029 -0.951018
vn 0.808984 0.009030 -0.587761
vn 0.335581 0.727730 0.598159
vn -0.393274 0.739792 0.545933
vn -0.763895 0.597115 -0.244780
vn 0.184682 -0.801768 0.568384
vn 0.607060 -0.794656 -0.000003
vn -0.819795 -0.516798 -0.246687
vn 0.422418 -0.691166 -0.586390
vn 0.021481 -0.835112 -0.549660
vn 0.607699 -0.296377 0.736792
vn -0.856491 0.089529 0.508338
vn -0.735090 -0.335522 0.589124
vn -0.640067 -0.401492 0.655071
vn -0.844169 -0.429914 -0.320240
vn 0.505409 0.494061 0.707436
vn 0.794655 0.187595 0.577349
vn 0.903104 0.421233 0.083464
vn -0.516245 0.468949 0.716644
vn -0.201448 0.072151 0.976838
vn -0.826144 0.497400 -0.264727
vn -0.973272 0.201841 -0.109551
vn -0.091337 0.371435 -0.923955
vn -0.309011 -0.006331 -0.951037
vn 0.809002 -0.006330 -0.587772
vn 0.616976 0.371441 -0.693810
vn -0.343936 0.770078 0.537297
vn 0.076402 0.959423 -0.271422
vn -0.200403 0.852127 -0.483444
vn 0.375890 0.902436 -0.210513
vn 0.423096 0.875741 -0.232523
usemtl None
s off
f 136//243 133//243 132//243
f 136//244 132//244 137//244
f 136//245 137//245 138//245
f 133//246 135//246 140//246
f 132//247 134//247 141//247
f 139//248 138//248 144//248
f 135//249 139//249 145//249
f 133//250 140//250 141//250
f 132//251 141//251 143//251
f 139//252 144//252 145//252
f 135//253 145//253 140//253
f 146//254 151//254 150//254
f 147//255 146//255 152//255
f 148//256 147//256 152//256
f 132//257 133//257 134//257
f 135//258 133//258 136//258
f 137//259 142//259 138//259
f 136//260 139//260 135//260
f 136//261 138//261 139//261
f 134//262 133//262 141//262
f 142//263 143//263 147//263
f 142//264 137//264 143//264
f 137//265 132//265 143//265
f 138//266 142//266 144//266
f 141//267 151//267 146//267
f 141//268 140//268 151//268
f 140//269 149//269 151//269
f 143//270 146//270 147//270
f 143//271 141//271 146//271
f 144//272 147//272 148//272
f 144//273 142//273 147//273
f 145//274 148//274 153//274
f 145//275 144//275 148//275
f 140//276 145//276 149//276
f 145//277 153//277 149//277
f 152//278 146//278 150//278
f 153//279 152//279 150//279
f 153//280 148//280 152//280
f 151//281 153//281 150//281
f 151//282 149//282 153//282
