# Blender v2.69 (sub 0) OBJ File: 'liver.blend'
# www.blender.org
mtllib liver.mtl
o Sphere
v -0.154620 1.913184 0.000000
v -0.487943 0.866158 -0.532189
v -0.763150 -0.656640 -0.406609
v -0.422594 -0.905931 -0.293455
v -0.500655 0.365558 -1.192021
v -0.499165 -0.231345 -0.937017
v -0.508485 -0.729584 -1.019407
v 0.000001 1.029768 -0.702105
v -0.527211 -1.107896 -0.727354
v -0.824461 0.577405 -0.747227
v -0.037609 0.136415 -1.260620
v -0.000000 -1.553399 -1.435132
v 0.000001 0.941594 -1.969464
v 0.441345 -0.233995 -1.000990
v 0.348099 -0.949040 -0.336293
v 0.485792 0.609916 -1.181416
v 0.600579 -1.003945 -0.852067
v 0.472719 0.871070 -0.547226
v -0.067235 -1.015576 -0.002321
v 0.763150 -0.656637 -0.406606
v 1.225082 0.180753 -0.000000
v 0.967311 0.513978 -0.519170
v 0.523613 0.834998 0.409725
v 0.443598 -0.900228 0.288757
v 0.923813 0.540204 0.594235
v 0.101321 1.032079 0.713721
v 0.721064 -0.734282 0.512390
v -0.000351 -1.545306 1.412364
v 0.485793 0.609915 1.181417
v -0.037609 0.136414 1.260620
v 0.441344 -0.233996 1.000990
v 0.000001 0.941594 1.969463
v -0.311606 -0.965735 0.346340
v -0.499165 -0.231343 0.937018
v -0.433042 -0.756969 1.041788
v -0.845116 0.577558 0.711972
v -0.472711 0.866981 0.551463
v -0.500656 0.365558 1.192020
v -0.721063 -0.734282 0.512390
v 0.112170 1.933810 0.000000
v -1.228698 0.252664 -0.000685
vn -0.889723 -0.456496 0.002180
vn -0.581010 -0.812809 -0.042061
vn -0.818445 -0.174667 -0.547394
vn -0.835489 -0.217643 -0.504569
vn -0.845805 -0.299145 -0.441732
vn -0.417367 0.803099 -0.425249
vn -0.068995 -0.958461 -0.276753
vn -0.314190 -0.373631 -0.872745
vn -0.066484 0.163996 -0.984218
vn -0.819795 -0.056583 -0.569854
vn -0.398104 -0.595612 -0.697681
vn -0.047652 0.616360 -0.786022
vn -0.169359 0.358701 -0.917960
vn 0.587428 -0.550037 -0.593622
vn 0.332496 -0.213891 -0.918530
vn 0.397903 0.851176 -0.342304
vn 0.457814 -0.832241 0.312700
vn 0.785428 -0.168688 -0.595522
vn 0.577240 -0.732660 0.360561
vn 0.809048 -0.173652 -0.561503
vn 0.194577 -0.979771 0.046785
vn 0.570493 -0.820167 -0.043169
vn 0.875751 -0.482762 -0.000683
vn 0.585223 0.810864 0.003764
vn 0.778910 0.626940 0.015663
vn 0.804994 -0.117801 0.581471
vn 0.780136 -0.169822 0.602120
vn 0.100335 -0.972676 0.209365
vn 0.332495 -0.213892 0.918530
vn 0.614739 -0.764050 -0.195762
vn -0.047953 0.620264 0.782926
vn -0.163181 0.344939 0.924332
vn 0.587426 -0.550038 0.593623
vn -0.066139 0.187043 0.980123
vn -0.821974 -0.051140 0.567225
vn -0.398106 -0.595611 0.697681
vn -0.369041 0.766420 0.525747
vn -0.554005 -0.788550 -0.266959
vn -0.314192 -0.373630 0.872745
vn -0.835983 -0.217349 0.503876
vn -0.812922 -0.122102 0.569429
vn -0.634275 0.773063 0.008328
vn -0.260759 -0.964359 -0.044907
vn -0.644888 0.764092 -0.016818
vn -0.820627 -0.204882 -0.533475
vn -0.908812 -0.225829 -0.350801
vn -0.620110 -0.643343 0.448969
vn -0.916855 0.081767 -0.390758
vn -0.430685 0.514128 -0.741743
vn -0.026811 -0.903785 0.427146
vn -0.477565 0.876478 -0.060979
vn -0.064767 -0.865571 0.496579
vn -0.054994 -0.619810 -0.782823
vn 0.621682 0.781381 -0.054363
vn 0.694460 0.004454 -0.719517
vn 0.418884 0.523980 -0.741607
vn 0.569082 0.764402 -0.303042
vn 0.904217 0.107034 -0.413444
vn 0.810243 -0.219753 -0.543337
vn 0.940333 0.338208 -0.037262
vn 0.593446 0.804873 -0.001222
vn 0.520893 -0.853524 -0.012931
vn 0.810241 -0.219388 0.543488
vn 0.649730 0.466955 0.599837
vn 0.489091 0.830607 0.266236
vn 0.554810 0.790994 0.257903
vn 0.817510 -0.097292 0.567636
vn 0.673196 0.731676 0.107040
vn 0.038679 -0.873112 -0.485983
vn -0.432761 0.901009 0.030007
vn -0.054995 -0.619810 0.782822
vn -0.853829 -0.255420 0.453583
vn -0.367393 0.518646 0.772028
vn -0.878585 -0.015380 0.477338
vn -0.820822 -0.202456 0.534100
vn -0.619877 0.784334 -0.023926
vn -0.954715 0.297229 0.013194
vn -0.490941 -0.871185 0.003733
usemtl None
s off
f 39//1 41//1 3//1
f 39//2 3//2 4//2
f 3//3 41//3 6//3
f 10//4 5//4 6//4
f 9//5 7//5 12//5
f 10//6 2//6 8//6
f 19//7 4//7 15//7
f 5//8 11//8 6//8
f 6//9 14//9 7//9
f 5//10 10//10 13//10
f 5//11 13//11 11//11
f 1//12 40//12 8//12
f 7//13 14//13 12//13
f 11//14 13//14 16//14
f 11//15 16//15 14//15
f 8//16 18//16 16//16
f 15//17 12//17 17//17
f 14//18 16//18 22//18
f 15//19 17//19 20//19
f 14//20 21//20 20//20
f 19//21 15//21 24//21
f 15//22 20//22 27//22
f 20//23 21//23 27//23
f 22//24 18//24 25//24
f 22//25 25//25 21//25
f 27//26 21//26 31//26
f 25//27 29//27 31//27
f 24//28 33//28 19//28
f 31//29 29//29 30//29
f 27//30 28//30 24//30
f 26//31 40//31 1//31
f 28//32 31//32 35//32
f 29//33 32//33 30//33
f 35//34 31//34 34//34
f 32//35 36//35 38//35
f 30//36 32//36 38//36
f 26//37 37//37 36//37
f 33//38 28//38 39//38
f 34//39 30//39 38//39
f 34//40 38//40 36//40
f 34//41 41//41 39//41
f 37//42 2//42 41//42
f 19//43 33//43 4//43
f 10//44 41//44 2//44
f 6//45 41//45 10//45
f 9//46 3//46 7//46
f 4//47 3//47 9//47
f 7//48 3//48 6//48
f 8//49 2//49 1//49
f 4//50 9//50 15//50
f 13//51 10//51 8//51
f 9//52 12//52 15//52
f 14//53 6//53 11//53
f 13//54 8//54 16//54
f 12//55 14//55 17//55
f 8//56 40//56 18//56
f 16//57 18//57 22//57
f 17//58 14//58 20//58
f 14//59 22//59 21//59
f 18//60 40//60 23//60
f 18//61 23//61 25//61
f 15//62 27//62 24//62
f 31//63 21//63 25//63
f 26//64 23//64 40//64
f 29//65 25//65 23//65
f 23//66 26//66 29//66
f 28//67 27//67 31//67
f 32//68 29//68 26//68
f 24//69 28//69 33//69
f 32//70 26//70 36//70
f 31//71 30//71 34//71
f 28//72 35//72 39//72
f 26//73 1//73 37//73
f 35//74 34//74 39//74
f 34//75 36//75 41//75
f 36//76 37//76 41//76
f 37//77 1//77 2//77
f 4//78 33//78 39//78
