# Blender v2.69 (sub 0) OBJ File: 'octagonalbloodvesselthing.blend'
# www.blender.org
mtllib octagonalbloodvesselthing.mtl
o Circle
v -0.501384 -0.013557 0.426594
v -0.854938 -0.013557 0.573040
v -1.001384 -0.013557 0.926594
v -0.854938 -0.013557 1.280147
v -0.501384 -0.013557 1.426594
v -0.147831 -0.013557 1.280147
v -0.001384 -0.013557 0.926594
v -0.147831 -0.013557 0.573040
v -0.501384 -0.013557 0.426594
v -0.854938 -0.013557 0.573040
v -1.001384 -0.013557 0.926594
v -0.854938 -0.013557 1.280147
v -0.501384 -0.013557 1.426594
v -0.147831 -0.013557 1.280147
v -0.001384 -0.013557 0.926594
v -0.147831 -0.013557 0.573040
v -0.476010 -0.436512 0.442576
v -0.913346 -0.550926 0.573040
v -1.057661 -0.525883 0.890691
v -0.863196 -0.550915 1.377433
v -0.453101 -0.533138 1.460682
v -0.096947 -0.550827 1.263119
v -0.080125 -0.495722 1.019363
v -0.054536 -0.555004 0.503294
v -0.501384 -0.984830 0.426594
v -0.854938 -0.984830 0.573040
v -1.001384 -0.984830 0.926594
v -0.854938 -0.984830 1.280147
v -0.501384 -0.984830 1.426594
v -0.147831 -0.984830 1.280147
v -0.001384 -0.984830 0.926594
v -0.147831 -0.984830 0.573040
vn 0.000000 0.000000 1.000000
vn -0.269604 -0.086642 0.959066
vn -0.990319 -0.010969 0.138379
vn -0.964751 0.006816 -0.263075
vn -0.436627 -0.055465 -0.897931
vn 0.288666 -0.107323 -0.951396
vn 0.922943 -0.078777 -0.376789
vn 0.910172 -0.113071 0.398500
vn 0.329891 0.004363 0.944009
vn -0.245500 0.082873 0.965848
vn -0.990520 0.012260 0.136823
vn -0.964413 -0.007417 -0.264296
vn -0.433901 0.065890 -0.898548
vn 0.282923 0.128218 -0.950534
vn 0.923639 0.092332 -0.371974
vn 0.911281 0.132727 0.389810
vn 0.330998 -0.004222 0.943622
usemtl None
s off
f 8//1 1//1 9//1 16//1
f 7//1 8//1 16//1 15//1
f 6//1 7//1 15//1 14//1
f 5//1 6//1 14//1 13//1
f 4//1 5//1 13//1 12//1
f 3//1 4//1 12//1 11//1
f 2//1 3//1 11//1 10//1
f 1//1 2//1 10//1 9//1
f 16//2 9//2 17//2 24//2
f 15//3 16//3 24//3 23//3
f 14//4 15//4 23//4 22//4
f 13//5 14//5 22//5 21//5
f 12//6 13//6 21//6 20//6
f 11//7 12//7 20//7 19//7
f 10//8 11//8 19//8 18//8
f 9//9 10//9 18//9 17//9
f 24//10 17//10 25//10 32//10
f 23//11 24//11 32//11 31//11
f 22//12 23//12 31//12 30//12
f 21//13 22//13 30//13 29//13
f 20//14 21//14 29//14 28//14
f 19//15 20//15 28//15 27//15
f 18//16 19//16 27//16 26//16
f 17//17 18//17 26//17 25//17
